<svg width="62" height="46" viewBox="0 0 62 46" fill="none" xmlns="http://www.w3.org/2000/svg">
<path d="M27.2707 28.9806V30.3333L28.4464 29.5858L37.7422 23.5696L38.6607 22.9644L37.7422 22.3592L28.4464 16.343L27.2707 15.5955V16.9482V28.9806ZM57.1788 41.4401C57.7299 41.2265 58.2076 40.9062 58.6118 40.479C59.0159 40.0518 59.2731 39.5534 59.4201 38.9838C60.1549 36.2783 61 31.3301 61 23C61 14.6699 60.1549 9.72168 59.4201 7.01618C59.2731 6.4822 59.0159 5.94821 58.6118 5.52103C58.2076 5.09385 57.7299 4.77346 57.1788 4.55987C52.2921 2.74434 45.7887 1.85436 40.4978 1.42718C35.4274 0.999993 31.4225 1 31.0184 1C30.7244 1 26.6828 0.999993 21.5021 1.42718C16.248 1.85436 9.70789 2.74434 4.82117 4.55987C4.27004 4.77346 3.79241 5.09385 3.38824 5.52103C2.98408 5.94821 2.72688 6.4466 2.57991 7.01618C1.84507 9.72168 1 14.6699 1 23C1 31.3301 1.84507 36.2783 2.57991 38.9838C2.72688 39.5178 2.98408 40.0518 3.38824 40.479C3.79241 40.9062 4.27004 41.2265 4.82117 41.4401C9.70789 43.2557 16.2113 44.1456 21.5021 44.5728C26.646 45 30.6877 45 30.9816 45C31.3123 45 35.3539 45 40.4978 44.5728C45.752 44.11 52.2921 43.2557 57.1788 41.4401Z" stroke="url(#paint0_linear_303_336)" stroke-width="2" stroke-linecap="round" stroke-linejoin="round"/>
<defs>
<linearGradient id="paint0_linear_303_336" x1="3.78163" y1="-7.951" x2="63.0308" y2="4.98127" gradientUnits="userSpaceOnUse">
<stop stop-color="#BF9C1E"/>
<stop offset="0.483444" stop-color="#FFF4D1"/>
<stop offset="1" stop-color="#D6A635"/>
</linearGradient>
</defs>
</svg>
