<svg width="78" height="44" viewBox="0 0 78 44" fill="none" xmlns="http://www.w3.org/2000/svg">
<path d="M42.8554 22C42.8554 33.6011 33.4827 43 21.9277 43C10.3728 43 1 33.6011 1 22C1 10.3989 10.3728 1 21.9277 1C33.4827 1 42.8554 10.3989 42.8554 22Z" stroke="url(#paint0_linear_721_122)" stroke-width="2"/>
<path d="M66.6628 22C66.6628 27.956 65.4748 33.2988 63.5999 37.1154C61.6931 40.9971 59.2478 43 56.8556 43C54.4634 43 52.0181 40.9971 50.1113 37.1154C48.2364 33.2988 47.0483 27.956 47.0483 22C47.0483 16.044 48.2364 10.7012 50.1113 6.88456C52.0181 3.00294 54.4634 1 56.8556 1C59.2478 1 61.6931 3.00294 63.5999 6.88456C65.4748 10.7012 66.6628 16.044 66.6628 22Z" stroke="url(#paint1_linear_721_122)" stroke-width="2"/>
<path d="M77 22C77 28.0333 76.5468 33.4695 75.824 37.3743C75.4611 39.335 75.0391 40.8595 74.5968 41.8702C74.374 42.3792 74.1698 42.702 74.0069 42.8822C73.9755 42.9169 73.9491 42.9427 73.9278 42.9616C73.9064 42.9427 73.88 42.9169 73.8487 42.8822C73.6857 42.702 73.4815 42.3792 73.2588 41.8702C72.8164 40.8595 72.3944 39.335 72.0315 37.3743C71.3087 33.4695 70.8555 28.0333 70.8555 22C70.8555 15.9667 71.3087 10.5305 72.0315 6.62566C72.3944 4.66503 72.8164 3.1405 73.2588 2.12979C73.4815 1.62082 73.6857 1.29796 73.8487 1.1178C73.88 1.08311 73.9064 1.05734 73.9278 1.03835C73.9491 1.05734 73.9755 1.08311 74.0069 1.1178C74.1698 1.29796 74.374 1.62082 74.5968 2.12979C75.0391 3.1405 75.4611 4.66503 75.824 6.62566C76.5468 10.5305 77 15.9667 77 22ZM73.8594 43.0112C73.8594 43.0111 73.8612 43.0101 73.8647 43.0089C73.8612 43.0108 73.8594 43.0114 73.8594 43.0112ZM73.9908 43.0089C73.9943 43.0102 73.9961 43.0111 73.9961 43.0112C73.9961 43.0114 73.9943 43.0108 73.9908 43.0089ZM73.9961 0.988756C73.9961 0.988907 73.9943 0.98985 73.9908 0.991131C73.9943 0.989245 73.9961 0.988604 73.9961 0.988756ZM73.8647 0.991131C73.8612 0.98985 73.8594 0.988907 73.8594 0.988756C73.8594 0.988604 73.8612 0.989245 73.8647 0.991131Z" stroke="url(#paint2_linear_721_122)" stroke-width="2"/>
<defs>
<linearGradient id="paint0_linear_721_122" x1="2.03316" y1="-8.951" x2="46.2769" y2="-1.89244" gradientUnits="userSpaceOnUse">
<stop stop-color="#BF9C1E"/>
<stop offset="0.483444" stop-color="#FFF4D1"/>
<stop offset="1" stop-color="#D6A635"/>
</linearGradient>
<linearGradient id="paint1_linear_721_122" x1="47.0504" y1="-8.951" x2="69.2738" y2="-7.20358" gradientUnits="userSpaceOnUse">
<stop stop-color="#BF9C1E"/>
<stop offset="0.483444" stop-color="#FFF4D1"/>
<stop offset="1" stop-color="#D6A635"/>
</linearGradient>
<linearGradient id="paint2_linear_721_122" x1="70.2331" y1="-8.951" x2="78.6515" y2="-8.70157" gradientUnits="userSpaceOnUse">
<stop stop-color="#BF9C1E"/>
<stop offset="0.483444" stop-color="#FFF4D1"/>
<stop offset="1" stop-color="#D6A635"/>
</linearGradient>
</defs>
</svg>
